<svg width="45" height="45" viewBox="0 0 45 45" fill="none" xmlns="http://www.w3.org/2000/svg">
<rect x="0.5" y="0.5" width="44" height="44" fill="#EEEEEE" fill-opacity="0.933333"/>
<rect x="0.5" y="0.5" width="44" height="44" stroke="#222831"/>
<path d="M11.854 5.28088C11.1518 5.3647 10.3137 5.81029 9.79655 6.38382C9.6531 6.54264 9.39638 6.87794 9.32466 7.01029C9.29445 7.06764 9.2416 7.15588 9.20763 7.20882C9.1208 7.34117 8.89051 7.92353 8.81878 8.18382C8.63757 8.86765 8.64513 7.93676 8.64513 25.5662V42L8.73573 42.0265C8.78481 42.0397 9.73237 42.0441 10.8423 42.0353C13.013 42.0176 12.9299 42.0265 13.4962 41.7706C14.0965 41.5015 14.5948 41.0779 15.0101 40.4779C15.1724 40.2397 15.4027 39.8515 15.4027 39.8074C15.4027 39.7941 15.4442 39.675 15.4971 39.5426C15.5499 39.4147 15.6367 39.1368 15.6858 38.9338L15.7802 38.5588V21.9309C15.7802 6.81176 15.7764 5.30294 15.7198 5.27647C15.6594 5.25 12.0881 5.25 11.854 5.28088Z" fill="#222831"/>
<path d="M17.0826 5.30295C17.0713 5.33383 17.0675 7.21765 17.0713 9.4853L17.0826 13.6103L21.4429 13.6324C24.8896 13.6544 25.8372 13.6721 25.9731 13.7162C26.6979 13.9632 27.1132 14.25 27.6266 14.85C27.838 15.1015 28.0117 15.3309 28.0117 15.3574C28.0117 15.3882 28.0344 15.4456 28.0646 15.4809C28.1401 15.5779 28.3288 16.0324 28.4194 16.3324C28.461 16.4691 28.5251 16.8044 28.5629 17.0735C28.6271 17.5368 28.6271 17.5809 28.5629 18.0574C28.4685 18.75 28.3401 19.1338 28.023 19.7029C27.638 20.3912 27.1434 20.8677 26.4639 21.2118C26.0486 21.4191 25.5843 21.4941 24.8217 21.4765L24.2554 21.4632L24.2365 19.5441C24.2252 18.4897 24.2101 17.6206 24.2063 17.6118C24.2026 17.6074 22.5981 17.6074 20.6426 17.6118L17.0826 17.625L17.0713 23.7221L17.0637 29.8191L17.1883 29.8456C17.4035 29.8941 26.1921 29.8368 26.4639 29.7838C27.2907 29.6294 27.755 29.5235 27.9362 29.4485C28.0079 29.4177 28.1967 29.3515 28.3515 29.2985C28.5063 29.2456 28.7026 29.1706 28.7856 29.1309C28.8687 29.0956 29.0046 29.0338 29.0876 28.9941C29.7823 28.6765 30.6921 28.1074 31.1828 27.6882C31.2961 27.5868 31.4509 27.4588 31.5226 27.4015C31.9001 27.1015 32.6589 26.2765 33.1271 25.6544C33.5612 25.0765 34.1577 24.1147 34.2672 23.8235C34.2785 23.7882 34.3238 23.7 34.3653 23.6338C34.5163 23.3779 34.9505 22.3015 35.0788 21.8603C35.1203 21.7147 35.177 21.5338 35.2034 21.4632C35.2563 21.3044 35.3997 20.7574 35.4261 20.6029C35.4375 20.5412 35.4828 20.3029 35.5243 20.0735C35.7886 18.675 35.815 16.7912 35.5922 15.4412C35.4563 14.6118 35.1581 13.3677 35.0675 13.2618C35.0486 13.2353 35.0335 13.1824 35.0335 13.1427C35.0335 13.0147 34.5654 11.85 34.3842 11.5279C34.3238 11.4265 34.2785 11.3338 34.2785 11.3162C34.2785 11.3029 34.135 11.0382 33.9576 10.7294C33.346 9.65736 32.6929 8.84118 31.6245 7.79559C31.5302 7.70736 31.4433 7.63236 31.432 7.63236C31.4207 7.63236 31.3339 7.56618 31.2395 7.48236C31.0734 7.33236 30.2655 6.75001 30.224 6.75001C30.2126 6.75001 30.122 6.69265 30.0239 6.62206C29.9219 6.55589 29.669 6.41471 29.4651 6.31324C29.2575 6.20736 29.0537 6.10589 29.0121 6.08383C28.914 6.0353 28.6271 5.91618 28.4836 5.86765C28.4232 5.84559 28.2533 5.78383 28.1061 5.7353C27.7399 5.60295 27.2529 5.47942 26.9169 5.42648C26.7621 5.40442 26.5507 5.36471 26.445 5.33383C26.1543 5.25442 17.109 5.22353 17.0826 5.30295Z" fill="#222831"/>
</svg>
